<svg xmlns="http://www.w3.org/2000/svg"  viewBox="0 0 48 48" width="48px" height="48px"><path fill="#3dd9eb" d="M5,23h42v4H5V23z"/><rect width="36" height="2" x="8" y="23" fill="#00b3d7"/><path fill="#3dd9eb" d="M8,23c0-9.941,8.059-18,18-18s18,8.059,18,18"/><rect width="4" height="4" x="24" y="3" fill="#3dd9eb"/><path fill="#00b3d7" d="M28,5.117C27.343,5.045,26.677,5,26,5s-1.343,0.045-2,0.117V7h4V5.117z"/><g><path fill="#eb7900" d="M37,29v-2H18v8h12L37,29z"/><path fill="#f5bc00" d="M38.505,27.683c-0.728-0.832-1.99-0.916-2.822-0.188L29.391,33H20v-2c2.153,0,7.138,0,8,0 c1.105,0,2-0.895,2-2c0-1.105-0.895-2-2-2c-0.094,0-13.28,0-13.28,0L8.6,31.66l7.26,9.55L20.09,38h9.662l8.565-7.495 C39.148,29.778,39.232,28.514,38.505,27.683z"/><polygon fill="#6c19ff" points="5,33.123 10.366,29.03 18.845,40.17 13.479,44.263"/><rect width="3" height="12" x="11.924" y="29.525" fill="#2100c4" transform="rotate(-37.274 13.425 35.527)"/></g></svg>